<mxfile host="65bd71144e">
    <diagram id="tlsyGYD9i4daREeGj70f" name="Page-1">
        <mxGraphModel dx="1225" dy="419" grid="1" gridSize="10" guides="1" tooltips="1" connect="1" arrows="1" fold="1" page="1" pageScale="1" pageWidth="827" pageHeight="1169" math="0" shadow="0">
            <root>
                <mxCell id="0"/>
                <mxCell id="1" parent="0"/>
                <mxCell id="2" value="Test 3 for real this time" style="rounded=0;whiteSpace=wrap;html=1;" vertex="1" parent="1">
                    <mxGeometry x="350" y="190" width="120" height="60" as="geometry"/>
                </mxCell>
                <mxCell id="3" value="Test 3 for real this time" style="rounded=0;whiteSpace=wrap;html=1;" vertex="1" parent="1">
                    <mxGeometry x="610" y="190" width="120" height="60" as="geometry"/>
                </mxCell>
                <mxCell id="4" value="Test 3 for real this time" style="rounded=0;whiteSpace=wrap;html=1;" vertex="1" parent="1">
                    <mxGeometry x="350" y="330" width="120" height="60" as="geometry"/>
                </mxCell>
                <mxCell id="5" value="Test 3 for real this time" style="rounded=0;whiteSpace=wrap;html=1;" vertex="1" parent="1">
                    <mxGeometry x="610" y="330" width="120" height="60" as="geometry"/>
                </mxCell>
            </root>
        </mxGraphModel>
    </diagram>
</mxfile>